<?xml version="1.0" encoding="iso-8859-1"?>
<!-- Generator: Adobe Illustrator 25.2.3, SVG Export Plug-In . SVG Version: 6.00 Build 0)  -->
<svg version="1.1" id="Layer_1" xmlns="http://www.w3.org/2000/svg" xmlns:xlink="http://www.w3.org/1999/xlink" x="0px" y="0px"
	 viewBox="0 0 600 640" style="enable-background:new 0 0 600 640;" xml:space="preserve">

<g>
	<path style="fill:#FFFFFF;" d="M126.34,251.616l-8.511-14.741c-6.721-11.642-6.721-25.542,0-37.184
		c6.721-11.642,18.759-18.592,32.202-18.592h59.339c0.351,0,0.691-0.044,0.998-0.576c0.307-0.532,0.175-0.849,0-1.152
		l-36.362-62.981l2.283-1.318l36.362,62.981c0.904,1.565,0.5,2.924,0,3.789c-0.499,0.864-1.473,1.894-3.282,1.894h-59.339
		c-12.489,0-23.673,6.457-29.919,17.274c-6.244,10.816-6.244,23.731,0,34.547l8.511,14.741L126.34,251.616z"/>
	<path style="fill:#A9FFE1;" d="M136.117,251.853l-11.057-19.152c-5.212-9.028-5.212-19.807,0-28.835
		c5.212-9.028,14.547-14.417,24.972-14.418h59.339c1.649,0,5.753-0.463,8.228-4.75c2.476-4.288,0.825-8.073,0-9.501l-38.772-67.155
		l2.283-1.318l38.772,67.155c0.822,1.423,3.252,6.506,0,12.138c-3.251,5.631-8.867,6.069-10.511,6.069h-59.339
		c-9.471,0-17.953,4.898-22.689,13.1c-4.736,8.202-4.736,17.996,0,26.198l11.057,19.152L136.117,251.853z"/>
	<path style="fill:#38FFBD;" d="M145.894,252.089l-13.604-23.563c-3.703-6.414-3.703-14.072,0-20.486
		c3.703-6.414,10.335-10.243,17.742-10.243h59.339c2.417,0,10.677-0.644,15.459-8.925c4.782-8.282,1.209-15.756,0-17.85
		l-41.182-71.33l2.283-1.318l41.182,71.33c1.387,2.403,5.488,10.982,0,20.486c-5.488,9.504-14.967,10.243-17.742,10.243h-59.339
		c-6.55,0-12.184,3.254-15.459,8.925c-3.226,5.589-3.226,12.261,0,17.85l13.604,23.563L145.894,252.089z"/>
	<path style="fill:#2590FF;" d="M155.67,252.325l-16.15-27.974c-2.227-3.856-2.227-8.28,0-12.137
		c2.226-3.857,6.057-6.069,10.511-6.069h59.339c3.548,0,15.672-0.945,22.689-13.099c7.018-12.155,1.774-23.126,0-26.199
		l-43.592-75.504l2.283-1.318l43.592,75.504c1.953,3.382,7.724,15.458,0,28.835c-7.723,13.378-21.066,14.417-24.972,14.417h-59.339
		c-3.538,0-6.46,1.688-8.228,4.751c-1.743,3.019-1.743,6.482,0,9.501l16.15,27.974L155.67,252.325z"/>
	<path style="fill:#FFFFFF;" d="M224.826,395.281l-17.022,0c-13.443,0-25.481-6.95-32.202-18.592
		c-6.721-11.641-6.721-25.542,0-37.184l29.67-51.389c0.175-0.304,0.307-0.621,0-1.153c-0.307-0.532-0.648-0.576-0.998-0.576H131.55
		v-2.636h72.724c1.808,0,2.782,1.03,3.281,1.894c0.499,0.863,0.903,2.221,0.001,3.787l-29.671,51.391
		c-6.244,10.817-6.244,23.732,0,34.548c6.244,10.816,17.429,17.273,29.919,17.274l17.022,0V395.281z"/>
	<path style="fill:#A9FFE1;" d="M229.919,386.932l-22.115,0c-10.424,0-19.76-5.39-24.971-14.417c-5.213-9.028-5.213-19.807,0-28.835
		l29.67-51.389c0.825-1.429,2.475-5.214,0-9.501c-2.476-4.288-6.579-4.75-8.228-4.75H126.73v-2.636h77.544
		c1.644,0,7.261,0.438,10.511,6.069c3.251,5.631,0.822,10.714,0,12.138l-29.67,51.389c-4.736,8.202-4.735,17.997,0,26.199
		c4.736,8.202,13.217,13.099,22.688,13.099l22.115,0V386.932z"/>
	<path style="fill:#38FFBD;" d="M235.012,378.583l-27.208,0c-7.406,0-14.039-3.829-17.742-10.243
		c-3.703-6.414-3.703-14.072,0-20.487l29.67-51.389c1.209-2.094,4.781-9.569,0-17.85c-4.782-8.282-13.041-8.925-15.459-8.925H121.91
		v-2.636h82.364c2.775,0,12.254,0.739,17.742,10.243c5.488,9.504,1.387,18.083,0,20.486l-29.67,51.389
		c-3.274,5.672-3.274,12.179,0,17.85c3.227,5.589,9.005,8.925,15.459,8.925l27.208,0V378.583z"/>
	<path style="fill:#2590FF;" d="M240.105,370.235l-32.302,0c0,0-0.001,0-0.002,0c-4.452,0-8.283-2.212-10.509-6.069
		c-2.226-3.857-2.226-8.281,0-12.138l29.669-51.389c1.774-3.073,7.018-14.044,0-26.198c-7.018-12.155-19.14-13.1-22.689-13.1
		h-87.185v-2.636h87.185c3.906,0,17.249,1.04,24.972,14.418c7.724,13.378,1.952,25.452,0,28.835l-29.669,51.389
		c-1.768,3.064-1.768,6.438,0,9.501c1.743,3.019,4.741,4.75,8.226,4.75c0,0,0,0,0.001,0l32.302,0V370.235z"/>
	<path style="fill:#FFFFFF;" d="M357.773,415.155c-13.443,0-25.481-6.95-32.203-18.591l-29.669-51.389
		c-0.176-0.304-0.384-0.577-0.998-0.577c-0.615,0-0.823,0.272-0.998,0.576l-36.362,62.982l-2.283-1.318l36.362-62.981
		c0.902-1.566,2.282-1.895,3.281-1.895c0.997,0,2.376,0.328,3.281,1.894l29.67,51.39c6.245,10.816,17.43,17.273,29.92,17.273
		c12.489,0,23.674-6.457,29.919-17.274l8.511-14.741l2.283,1.318l-8.511,14.741C383.254,408.205,371.216,415.155,357.773,415.155z"
		/>
	<path style="fill:#A9FFE1;" d="M247.903,408.155l-2.283-1.318l38.772-67.155c0.822-1.424,4.009-6.069,10.511-6.069
		c6.502,0,9.69,4.645,10.511,6.069l29.669,51.389c4.737,8.202,13.218,13.099,22.689,13.099c9.471,0,17.952-4.897,22.688-13.099
		l11.058-19.151l2.283,1.318l-11.058,19.151c-5.212,9.028-14.547,14.417-24.971,14.417s-19.76-5.389-24.972-14.417L303.132,341
		c-0.825-1.429-3.277-4.751-8.228-4.751c-4.951,0-7.404,3.322-8.228,4.751L247.903,408.155z"/>
	<path style="fill:#38FFBD;" d="M238.263,408.155l-2.283-1.318l41.182-71.329c1.387-2.403,6.767-10.243,17.742-10.243
		c10.974,0,16.354,7.84,17.742,10.243l29.669,51.389c3.275,5.672,8.91,8.925,15.459,8.925c6.453,0,12.232-3.336,15.458-8.925
		l13.604-23.563l2.283,1.318l-13.604,23.563c-3.703,6.414-10.335,10.243-17.741,10.243s-14.039-3.829-17.742-10.243l-29.669-51.389
		c-1.209-2.094-5.897-8.925-15.459-8.925c-9.563,0-14.25,6.831-15.459,8.925L238.263,408.155z"/>
	<path style="fill:#2590FF;" d="M228.622,408.155l-2.283-1.318l43.592-75.504c1.952-3.382,9.523-14.417,24.972-14.417
		c15.448,0,23.019,11.035,24.971,14.417l29.67,51.389c1.769,3.063,4.691,4.75,8.228,4.75c3.487,0,6.486-1.732,8.228-4.75
		l16.151-27.974l2.283,1.318l-16.151,27.974c-2.226,3.857-6.058,6.068-10.511,6.068c-4.453,0-8.284-2.212-10.511-6.069
		l-29.67-51.389c-1.774-3.073-8.653-13.099-22.688-13.099c-14.036,0-20.915,10.026-22.689,13.099L228.622,408.155z"/>
	<path style="fill:#FFFFFF;" d="M423.711,361.243l-36.362-62.981c-0.903-1.568-0.499-2.926,0-3.789
		c0.499-0.864,1.473-1.894,3.281-1.894h59.339c12.49,0,23.674-6.457,29.919-17.274c6.245-10.816,6.245-23.731,0-34.547
		l-8.511-14.741l2.283-1.318l8.511,14.741c6.721,11.642,6.721,25.543,0,37.184c-6.721,11.642-18.759,18.592-32.202,18.592H390.63
		c-0.351,0-0.691,0.044-0.998,0.576c-0.307,0.531-0.175,0.849,0,1.153l36.362,62.981L423.711,361.243z"/>
	<path style="fill:#A9FFE1;" d="M418.891,369.591l-38.772-67.155c-0.822-1.424-3.251-6.507,0-12.138
		c3.251-5.631,8.867-6.069,10.511-6.069h59.339c9.472,0,17.953-4.897,22.688-13.1s4.736-17.996,0-26.198L461.6,225.78l2.283-1.318
		l11.057,19.152c5.213,9.028,5.213,19.807,0,28.835c-5.212,9.028-14.547,14.417-24.971,14.418H390.63
		c-1.649,0-5.753,0.463-8.228,4.75c-2.475,4.288-0.825,8.073,0,9.501l38.772,67.155L418.891,369.591z"/>
	<path style="fill:#38FFBD;" d="M414.07,377.94l-41.182-71.329c-1.387-2.403-5.487-10.982,0-20.486
		c5.488-9.504,14.967-10.243,17.742-10.243h59.339c6.55,0,12.184-3.254,15.459-8.925c3.226-5.589,3.226-12.261,0-17.85
		l-13.604-23.563l2.283-1.318l13.604,23.563c3.703,6.414,3.703,14.072,0,20.486c-3.703,6.414-10.335,10.243-17.742,10.243H390.63
		c-2.417,0-10.677,0.644-15.459,8.925c-4.781,8.281-1.209,15.756,0,17.85l41.182,71.329L414.07,377.94z"/>
	<path style="fill:#2590FF;" d="M409.25,386.289l-43.593-75.504c-1.953-3.382-7.724-15.458,0-28.835
		c7.723-13.378,21.066-14.417,24.971-14.417h59.339c3.537,0,6.46-1.688,8.229-4.75c1.743-3.019,1.743-6.482,0-9.501l-16.15-27.974
		l2.283-1.318l16.15,27.974c2.227,3.857,2.227,8.281,0,12.138c-2.227,3.856-6.058,6.068-10.512,6.069H390.63
		c-3.548,0-15.671,0.945-22.688,13.099c-7.018,12.155-1.775,23.126,0,26.199l43.593,75.504L409.25,386.289z"/>
	<path style="fill:#FFFFFF;" d="M468.45,192.563h-72.724c-1.808,0-2.782-1.03-3.282-1.894c-0.499-0.865-0.904-2.224,0-3.789
		l29.67-51.388c6.244-10.817,6.244-23.732,0-34.548c-6.245-10.816-17.43-17.273-29.919-17.274h-17.021v-2.636h17.021
		c13.443,0,25.481,6.95,32.202,18.592c6.721,11.641,6.721,25.542,0,37.184l-29.67,51.389c-0.176,0.304-0.307,0.621,0,1.153
		c0.307,0.532,0.648,0.576,0.998,0.576h72.724V192.563z"/>
	<path style="fill:#A9FFE1;" d="M473.271,200.912h-77.544c-1.644,0-7.26-0.438-10.512-6.069c-3.251-5.631-0.821-10.714,0-12.138
		l29.67-51.389c4.735-8.202,4.735-17.997,0-26.199c-4.736-8.202-13.218-13.099-22.689-13.099h-22.114v-2.636h22.114
		c10.424,0,19.76,5.39,24.972,14.417c5.212,9.028,5.212,19.807,0,28.835l-29.67,51.389c-0.825,1.429-2.476,5.214,0,9.501
		c2.476,4.288,6.579,4.75,8.229,4.75h77.544V200.912z"/>
	<path style="fill:#38FFBD;" d="M478.091,209.261h-82.364c-2.775,0-12.255-0.739-17.742-10.243c-5.487-9.504-1.387-18.083,0-20.486
		l29.67-51.389c3.274-5.673,3.274-12.179,0-17.85c-3.227-5.589-9.005-8.925-15.458-8.925l-27.208,0v-2.636l27.208,0
		c7.406,0,14.038,3.829,17.741,10.243c3.703,6.413,3.703,14.072,0,20.487l-29.67,51.389c-1.209,2.094-4.781,9.569,0,17.85
		c4.782,8.282,13.042,8.925,15.459,8.925h82.364V209.261z"/>
	<path style="fill:#2590FF;" d="M482.911,217.61h-87.184c-3.906,0-17.249-1.04-24.972-14.418c-7.724-13.378-1.953-25.452,0-28.835
		l29.669-51.389c1.769-3.064,1.769-6.438,0-9.501c-1.743-3.019-4.742-4.75-8.226-4.75c0,0,0,0-0.001,0l-32.301,0v-2.636l32.301,0
		c0,0,0.001,0,0.002,0c4.452,0,8.283,2.212,10.509,6.069c2.227,3.857,2.227,8.281,0,12.138l-29.669,51.389
		c-1.774,3.073-7.018,14.044,0,26.198c7.018,12.155,19.14,13.1,22.689,13.1h87.184V217.61z"/>
	<path style="fill:#FFFFFF;" d="M342.457,68.16l-36.362,62.981c-0.176,0.304-0.384,0.577-0.998,0.577
		c-0.615,0-0.823-0.272-0.998-0.577l-29.67-51.389c-6.721-11.641-18.76-18.591-32.203-18.591c-13.442,0-25.48,6.95-32.202,18.592
		l-8.511,14.741l2.283,1.318l8.511-14.741c6.245-10.816,17.43-17.274,29.919-17.274c12.49,0,23.674,6.457,29.92,17.273
		l29.669,51.388c0.902,1.567,2.283,1.896,3.282,1.896c0.998,0,2.376-0.328,3.281-1.895l36.362-62.981L342.457,68.16z"/>
	<path style="fill:#A9FFE1;" d="M352.097,68.16l-38.772,67.155c-0.825,1.429-3.278,4.751-8.228,4.751
		c-4.951,0-7.404-3.322-8.228-4.751l-29.67-51.389c-5.212-9.028-14.548-14.417-24.972-14.417c-10.424,0-19.76,5.39-24.972,14.417
		l-11.057,19.152l2.283,1.318l11.057-19.152c4.736-8.202,13.218-13.099,22.689-13.099c9.471,0,17.953,4.897,22.689,13.099
		l29.67,51.389c0.822,1.424,4.009,6.069,10.511,6.069c6.502,0,9.689-4.645,10.511-6.069l38.772-67.155L352.097,68.16z"/>
	<path style="fill:#38FFBD;" d="M361.737,68.16l-41.182,71.329c-1.209,2.094-5.897,8.925-15.459,8.925
		c-9.562,0-14.249-6.831-15.458-8.925L259.969,88.1c-3.703-6.414-10.336-10.243-17.742-10.243c-7.406,0-14.039,3.829-17.742,10.243
		l-13.604,23.563l2.283,1.318l13.604-23.563c3.226-5.589,9.005-8.925,15.459-8.925c6.549,0,12.183,3.253,15.459,8.925l29.67,51.389
		c1.387,2.403,6.767,10.243,17.741,10.243c10.975,0,16.355-7.84,17.742-10.243l41.182-71.329L361.737,68.16z"/>
	<path style="fill:#2590FF;" d="M371.378,68.16l-43.592,75.504c-1.774,3.073-8.654,13.1-22.689,13.1
		c-14.035,0-20.914-10.027-22.688-13.1l-29.67-51.389c-2.227-3.857-6.058-6.069-10.511-6.069s-8.284,2.212-10.511,6.068
		l-16.151,27.974l2.283,1.318l16.151-27.974c1.743-3.018,4.742-4.75,8.228-4.75c3.537,0,6.459,1.687,8.228,4.75l29.67,51.389
		c1.953,3.382,9.524,14.418,24.971,14.418c15.448,0,23.02-11.036,24.972-14.418l43.592-75.504L371.378,68.16z"/>
	<path style="fill:#4400FF;" d="M245.508,96.448c-0.271-0.468-1.095-1.893-3.281-1.893c-2.188,0-3.011,1.426-3.281,1.894
		l-17.424,30.179L195.57,81.676l-2.283,1.318l46.002,79.678c2.339,4.052,9.254,18.52,0,34.548
		c-9.253,16.028-25.239,17.274-29.919,17.274h-59.34c-0.541,0-2.188,0.001-3.28,1.894c-1.094,1.895-0.271,3.321,0,3.789
		l17.424,30.178h-51.905v2.636h92.005c4.679,0,20.665,1.246,29.919,17.274c9.254,16.027,2.339,30.495,0,34.547l-29.67,51.39
		c-0.27,0.469-1.093,1.895,0,3.788c1.094,1.895,2.74,1.875,3.281,1.894l34.847,0l-25.952,44.951l2.283,1.318l46.002-79.678
		c2.34-4.052,11.411-17.274,29.92-17.274c18.508,0,27.579,13.222,29.918,17.274l29.67,51.39c0.271,0.469,1.095,1.894,3.281,1.894
		c2.19,0,3.012-1.427,3.281-1.894l17.424-30.179l25.952,44.951l2.283-1.318l-46.002-79.678c-2.339-4.052-9.254-18.52,0-34.548
		c9.254-16.028,25.24-17.274,29.919-17.274h59.34c0.541,0,2.188-0.001,3.281-1.894c1.094-1.895,0.27-3.321,0-3.788l-17.423-30.179
		h51.904v-2.636h-92.004c-4.679,0-20.666-1.246-29.919-17.274c-9.254-16.028-2.34-30.495,0-34.547l29.669-51.389
		c0.271-0.469,1.094-1.895,0-3.789c-1.094-1.896-2.741-1.912-3.281-1.894l-34.847,0l25.952-44.951l-2.283-1.318l-46.002,79.678
		c-2.34,4.052-11.412,17.274-29.92,17.274c-18.507,0-27.579-13.222-29.919-17.274L245.508,96.448L245.508,96.448z M450.967,257.456
		c0.234,0.406,0.286,0.655,0,1.152c-0.3,0.519-0.546,0.576-0.998,0.576H390.63c-5.036,0-22.242,1.341-32.202,18.592
		c-9.96,17.251-2.519,32.822,0,37.184l18.528,32.091l-18.185,31.498c-0.234,0.406-0.424,0.575-0.998,0.575
		c-0.599,0-0.771-0.185-0.998-0.577l-29.67-51.389c-2.518-4.362-12.281-18.592-32.201-18.592c-19.921,0-29.685,14.23-32.203,18.592
		l-18.528,32.091l-36.37,0c-0.502-0.012-0.71-0.08-0.997-0.576c-0.3-0.519-0.226-0.761,0-1.153l29.669-51.389
		c2.518-4.362,9.961-19.933,0-37.184c-9.96-17.252-27.166-18.592-32.202-18.592h-37.056l-18.185-31.497
		c-0.234-0.406-0.286-0.655,0-1.152c0.3-0.519,0.546-0.576,0.998-0.576h59.339c5.037,0,22.242-1.341,32.202-18.592
		c9.96-17.251,2.519-32.822,0-37.184l-18.528-32.091l18.185-31.497c0.234-0.406,0.424-0.575,0.998-0.575
		c0.599,0,0.771,0.185,0.998,0.577l0,0l29.669,51.388c2.518,4.362,12.282,18.592,32.202,18.592c19.92,0,29.684-14.23,32.203-18.592
		l18.528-32.091l36.37,0c0.001,0,0.002,0,0.003,0c0.467,0,0.708,0.081,0.994,0.576c0.3,0.519,0.226,0.76,0,1.153l-29.669,51.389
		c-2.518,4.362-9.96,19.933,0,37.184c9.96,17.252,27.166,18.592,32.202,18.592h37.056L450.967,257.456z"/>
</g>
</svg>